<?xml version="1.0" encoding="utf-8"?>
<!-- Generator: Adobe Illustrator 18.0.0, SVG Export Plug-In . SVG Version: 6.00 Build 0)  -->
<!DOCTYPE svg PUBLIC "-//W3C//DTD SVG 1.0//EN" "http://www.w3.org/TR/2001/REC-SVG-20010904/DTD/svg10.dtd">
<svg version="1.0" id="Layer_1" xmlns="http://www.w3.org/2000/svg" xmlns:xlink="http://www.w3.org/1999/xlink" x="0px" y="0px"
	 viewBox="0 0 16 16" enable-background="new 0 0 16 16" xml:space="preserve">
<path fill="#20B2E8" d="M15.1,4.1c-0.5,0.2-1.1,0.4-1.7,0.5c0.6-0.4,1.1-0.9,1.3-1.6c-0.6,0.3-1.2,0.6-1.8,0.7
	c-0.5-0.6-1.3-0.9-2.1-0.9C9.1,2.7,7.8,4,7.8,5.6c0,0.2,0,0.5,0.1,0.7c-2.4-0.1-4.6-1.3-6-3C1.7,3.7,1.5,4.2,1.5,4.7
	c0,1,0.5,1.9,1.3,2.4C2.3,7.1,1.9,7,1.5,6.8c0,0,0,0,0,0c0,1.4,1,2.6,2.3,2.8C3.6,9.7,3.3,9.8,3.1,9.8c-0.2,0-0.4,0-0.5-0.1
	c0.4,1.2,1.4,2,2.7,2C4.2,12.5,3,13,1.6,13c-0.2,0-0.5,0-0.7,0c1.3,0.8,2.8,1.3,4.5,1.3c5.3,0,8.3-4.4,8.3-8.3c0-0.1,0-0.3,0-0.4
	C14.2,5.2,14.7,4.7,15.1,4.1z"/>
</svg>
