<?xml version="1.0" encoding="utf-8"?>
<!-- Generator: Adobe Illustrator 18.0.0, SVG Export Plug-In . SVG Version: 6.00 Build 0)  -->
<!DOCTYPE svg PUBLIC "-//W3C//DTD SVG 1.0//EN" "http://www.w3.org/TR/2001/REC-SVG-20010904/DTD/svg10.dtd">
<svg version="1.0" id="vk" xmlns="http://www.w3.org/2000/svg" xmlns:xlink="http://www.w3.org/1999/xlink" x="0px" y="0px"
	 viewBox="0 0 16 16" enable-background="new 0 0 16 16" xml:space="preserve">
<path fill="#2F6DAC" d="M11,7.3c1.1-0.6,1.8-1.7,1.8-3c0-2-1.5-3.5-4.8-3.4H2.3v14.2c0,0,6,0,6.1,0c2.3,0,5.2-1.2,5.2-4.3
	C13.7,8.6,12.5,7.6,11,7.3z M5.9,3.7h2c0,0,1.3,0,1.3,1.3c0,1.4-1.3,1.5-1.3,1.5h-2V3.7z M8,12.4C8,12.4,8,12.4,8,12.4L8,12.4H5.9
	V8.9h2c0,0,2-0.2,2,1.7C9.9,12.1,8.6,12.4,8,12.4z"/>
</svg>
